<svg width="25" height="25" viewBox="0 0 25 25" fill="none" xmlns="http://www.w3.org/2000/svg">
<circle cx="12.5" cy="12.5" r="12.5" fill="#EA5462"/>
<g clip-path="url(#clip0_1101_3279)">
<path d="M14.6596 11.4289C14.8762 11.2145 15.0106 10.9173 15.0106 10.5892C15.0106 9.93744 14.4803 9.40723 13.8284 9.40723C13.3261 9.40723 12.8809 9.72565 12.7147 10.1923C12.645 10.1794 12.5733 10.1724 12.5 10.1724C12.4266 10.1724 12.355 10.1794 12.2853 10.1923C12.119 9.72563 11.6738 9.40723 11.1715 9.40723C10.5197 9.40723 9.98934 9.93744 9.98934 10.5892C9.98934 10.9173 10.1238 11.2145 10.3404 11.4289C9.82083 11.7249 9.48633 12.2854 9.48633 12.8949C9.48633 13.0001 9.57159 13.0854 9.67676 13.0854C9.78193 13.0854 9.86719 13.0001 9.86719 12.8949C9.86719 12.3566 10.2043 11.8677 10.7066 11.676C10.8494 11.7373 11.0066 11.7714 11.1716 11.7714C11.2442 11.7714 11.3162 11.7644 11.3866 11.7514C11.4468 11.9197 11.5441 12.0705 11.6686 12.1939C11.1443 12.4908 10.8148 13.0471 10.8148 13.6601C10.8148 13.7653 10.9001 13.8506 11.0053 13.8506C11.1104 13.8506 11.1957 13.7653 11.1957 13.6601C11.1957 13.1347 11.5084 12.6629 11.9923 12.4582C12.0053 12.4527 12.0173 12.4459 12.0283 12.4381C12.1729 12.5013 12.3324 12.5366 12.5 12.5366C12.665 12.5366 12.8222 12.5025 12.965 12.4412C13.4671 12.6329 13.8043 13.1223 13.8043 13.6601C13.8043 13.7653 13.8895 13.8506 13.9947 13.8506C14.0999 13.8506 14.1851 13.7653 14.1851 13.6601C14.1851 13.0511 13.8506 12.4902 13.3311 12.1941C13.4558 12.0707 13.5531 11.9198 13.6133 11.7514C13.6838 11.7644 13.7557 11.7714 13.8284 11.7714C13.9934 11.7714 14.1505 11.7373 14.2933 11.676C14.7957 11.8677 15.1328 12.3565 15.1328 12.8949C15.1328 13.0001 15.218 13.0854 15.3232 13.0854C15.4284 13.0854 15.5136 13.0001 15.5136 12.8949C15.5137 12.2853 15.1792 11.7249 14.6596 11.4289ZM11.3179 11.3545C11.3179 11.362 11.3183 11.3693 11.3184 11.3768C11.2705 11.3857 11.2214 11.3905 11.1716 11.3905C10.7297 11.3905 10.3702 11.031 10.3702 10.5892C10.3702 10.1475 10.7297 9.78809 11.1716 9.78809C11.5125 9.78809 11.8144 10.0044 11.9268 10.3211C11.564 10.5232 11.3179 10.9106 11.3179 11.3545ZM11.6988 11.3545C11.6988 10.9127 12.0582 10.5532 12.5 10.5532C12.9418 10.5532 13.3013 10.9127 13.3013 11.3545C13.3013 11.7963 12.9418 12.1558 12.5 12.1558C12.0582 12.1558 11.6988 11.7963 11.6988 11.3545ZM13.6815 11.3768C13.6817 11.3693 13.6821 11.362 13.6821 11.3545C13.6821 10.9106 13.436 10.5232 13.0732 10.3211C13.1856 10.0044 13.4875 9.78811 13.8284 9.78811C14.2703 9.78811 14.6298 10.1475 14.6298 10.5892C14.6298 11.031 14.2703 11.3905 13.8284 11.3905C13.7786 11.3905 13.7295 11.3857 13.6815 11.3768Z" fill="white"/>
<path d="M17.4316 14.2301V10.7686C17.9063 10.6791 18.2666 10.2615 18.2666 9.76121C18.2666 9.19576 17.8066 8.73575 17.2411 8.73575C16.9304 8.73575 16.6516 8.8749 16.4634 9.09392L13.4677 7.36417C13.5049 7.25806 13.5254 7.14411 13.5254 7.02541C13.5254 6.46 13.0654 6 12.5 6C11.9346 6 11.4745 6.46 11.4745 7.02543C11.4745 7.14413 11.495 7.25806 11.5323 7.3642L8.53652 9.09392C8.34833 8.8749 8.06961 8.73575 7.75886 8.73575C7.1934 8.73575 6.7334 9.19576 6.7334 9.76121C6.7334 10.2615 7.09364 10.679 7.56832 10.7686V14.2301C7.09364 14.3197 6.7334 14.7372 6.7334 15.2375C6.7334 15.803 7.1934 16.263 7.75886 16.263C8.06913 16.263 8.34744 16.1243 8.53564 15.9059L11.5323 17.6359C11.495 17.742 11.4745 17.8559 11.4745 17.9746C11.4745 18.54 11.9345 19 12.5 19C13.0655 19 13.5255 18.54 13.5255 17.9746C13.5255 17.8559 13.505 17.742 13.4677 17.6359L16.4644 15.9059C16.6526 16.1243 16.9309 16.263 17.2411 16.263C17.8066 16.263 18.2666 15.803 18.2666 15.2375C18.2666 14.7372 17.9063 14.3197 17.4316 14.2301ZM17.2411 9.11662C17.5965 9.11662 17.8857 9.40579 17.8857 9.76121C17.8857 10.1166 17.5965 10.4058 17.2411 10.4058C16.8857 10.4058 16.5965 10.1166 16.5965 9.76121C16.5965 9.40579 16.8857 9.11662 17.2411 9.11662ZM12.5 6.38086C12.8554 6.38086 13.1446 6.67001 13.1446 7.02543C13.1446 7.38052 12.856 7.66947 12.501 7.67C12.5007 7.67 12.5003 7.66995 12.5 7.66995C12.4997 7.66995 12.4993 7.67 12.499 7.67C12.144 7.66947 11.8554 7.38052 11.8554 7.02543C11.8554 6.67001 12.1446 6.38086 12.5 6.38086ZM7.11426 9.76121C7.11426 9.40579 7.40344 9.11662 7.75886 9.11662C8.11428 9.11662 8.40345 9.40579 8.40345 9.76121C8.40345 10.1166 8.11428 10.4058 7.75886 10.4058C7.40344 10.4058 7.11426 10.1166 7.11426 9.76121ZM7.75886 15.8821C7.40344 15.8821 7.11426 15.5929 7.11426 15.2375C7.11426 14.8821 7.40344 14.5929 7.75886 14.5929C8.11428 14.5929 8.40345 14.8821 8.40345 15.2375C8.40345 15.5929 8.11428 15.8821 7.75886 15.8821ZM12.5 18.6191C12.1446 18.6191 11.8554 18.33 11.8554 17.9745C11.8554 17.6191 12.1446 17.3299 12.5 17.3299C12.8554 17.3299 13.1446 17.6191 13.1446 17.9745C13.1446 18.33 12.8554 18.6191 12.5 18.6191ZM13.2768 17.3063C13.1281 17.1337 12.9231 17.011 12.6904 16.9671V16.2335C12.6904 16.1283 12.6051 16.043 12.5 16.043C12.3948 16.043 12.3095 16.1283 12.3095 16.2335V16.9671C12.0769 17.011 11.8719 17.1337 11.7231 17.3063L8.72652 15.5763C8.7638 15.4701 8.78429 15.3562 8.78429 15.2375C8.78429 15.1187 8.76375 15.0047 8.72642 14.8985L9.36195 14.5314C9.45303 14.4788 9.48421 14.3623 9.43163 14.2713C9.37904 14.1802 9.26257 14.149 9.17147 14.2016L8.53538 14.569C8.38667 14.3965 8.18171 14.2739 7.94916 14.2301V10.7687C8.18179 10.7248 8.38679 10.6022 8.53551 10.4296L9.17246 10.7975C9.20245 10.8148 9.2352 10.823 9.26752 10.823C9.33331 10.823 9.39732 10.7889 9.43259 10.7278C9.4852 10.6367 9.45399 10.5202 9.36292 10.4676L8.72645 10.1001C8.76372 9.99392 8.78424 9.87994 8.78424 9.76121C8.78424 9.64299 8.7639 9.5295 8.7269 9.42374L11.7231 7.69374C11.8718 7.86635 12.0768 7.98899 12.3095 8.03286V8.76658C12.3095 8.87177 12.3947 8.95701 12.4999 8.95701C12.6051 8.95701 12.6903 8.87177 12.6903 8.76658V8.03286C12.923 7.98899 13.128 7.86635 13.2767 7.69374L16.2729 9.42374C16.2359 9.5295 16.2156 9.64299 16.2156 9.76121C16.2156 9.87994 16.2361 9.99392 16.2733 10.1001L15.6369 10.4676C15.5458 10.5202 15.5146 10.6367 15.5672 10.7278C15.6025 10.7889 15.6665 10.823 15.7323 10.823C15.7646 10.823 15.7973 10.8148 15.8273 10.7975L16.4643 10.4296C16.613 10.6022 16.818 10.7248 17.0506 10.7687V14.2301C16.8181 14.2739 16.6132 14.3965 16.4644 14.569L15.8283 14.2016C15.7372 14.1491 15.6208 14.1802 15.5682 14.2713C15.5156 14.3623 15.5468 14.4788 15.6378 14.5314L16.2734 14.8985C16.236 15.0047 16.2155 15.1187 16.2155 15.2375C16.2155 15.3562 16.236 15.4702 16.2733 15.5763L13.2768 17.3063ZM17.2411 15.8821C16.8857 15.8821 16.5965 15.5929 16.5965 15.2375C16.5965 14.8821 16.8857 14.5929 17.2411 14.5929C17.5965 14.5929 17.8857 14.8821 17.8857 15.2375C17.8857 15.5929 17.5965 15.8821 17.2411 15.8821Z" fill="white"/>
<path d="M14.095 14.4678H13.5283C13.4232 14.4678 13.3379 14.553 13.3379 14.6582C13.3379 14.7634 13.4232 14.8486 13.5283 14.8486H14.095C14.2002 14.8486 14.2855 14.7634 14.2855 14.6582C14.2855 14.553 14.2002 14.4678 14.095 14.4678Z" fill="white"/>
<path d="M14.0948 15.2139H10.9048C10.7996 15.2139 10.7144 15.2991 10.7144 15.4043C10.7144 15.5095 10.7996 15.5947 10.9048 15.5947H14.0948C14.2 15.5947 14.2852 15.5095 14.2852 15.4043C14.2852 15.2991 14.2 15.2139 14.0948 15.2139Z" fill="white"/>
<path d="M10.9048 14.8486H10.9074C11.0126 14.8486 11.0979 14.7634 11.0979 14.6582C11.0979 14.553 11.0126 14.4678 10.9074 14.4678H10.9048C10.7996 14.4678 10.7144 14.553 10.7144 14.6582C10.7144 14.7634 10.7996 14.8486 10.9048 14.8486Z" fill="white"/>
<path d="M11.5671 14.8486C11.6723 14.8486 11.7575 14.7634 11.7575 14.6582C11.7575 14.553 11.6723 14.4678 11.5671 14.4678H11.5645C11.4593 14.4678 11.374 14.553 11.374 14.6582C11.374 14.7634 11.4593 14.8486 11.5645 14.8486H11.5671Z" fill="white"/>
<path d="M12.2268 14.8486C12.3319 14.8486 12.4172 14.7634 12.4172 14.6582C12.4172 14.553 12.3319 14.4678 12.2268 14.4678H12.2241C12.119 14.4678 12.0337 14.553 12.0337 14.6582C12.0337 14.7634 12.119 14.8486 12.2241 14.8486H12.2268Z" fill="white"/>
</g>
<defs>
<clipPath id="clip0_1101_3279">
<rect width="13" height="13" fill="white" transform="translate(6 6)"/>
</clipPath>
</defs>
</svg>
