<svg width="25" height="25" viewBox="0 0 25 25" fill="none" xmlns="http://www.w3.org/2000/svg">
<circle cx="12.5" cy="12.5" r="12.5" fill="#E5693C"/>
<g clip-path="url(#clip0_1101_3271)">
<path d="M18.8721 12.4147L16.8007 7.45698L14.8021 8.29205C14.8272 8.05633 14.8272 7.7228 14.6993 7.48206C14.4134 6.94792 13.7463 6.74479 13.2122 7.03067C12.678 7.31655 12.4749 7.9836 12.7608 8.51775C12.8611 8.70583 13.0116 8.8588 13.1971 8.96161L11.0606 9.85185C11.0129 9.70139 10.9402 9.55845 10.8474 9.43056C10.875 9.41551 10.8976 9.39796 10.9201 9.37539C10.9728 9.32272 11.0054 9.25251 11.0054 9.17728L10.9954 8.34973H11.1659C11.206 8.34973 11.2436 8.33218 11.2712 8.30459C11.3013 8.27701 11.3164 8.23688 11.3164 8.19676L11.2863 6L10.9853 6.00502L11.0129 8.0488L6.99305 8.0789L6.96546 6L6.66454 6.00502L6.69212 8.23438C6.69463 8.31713 6.75983 8.37982 6.84259 8.38233H7.01813C7.01813 8.38985 7.02816 9.20988 7.02816 9.20988C7.03066 9.30015 7.0758 9.38291 7.14853 9.43557L7.03819 9.61111C6.99556 9.67882 6.93788 9.84684 6.93788 9.84684H6.93537L6.49652 11.4844L6.61188 11.8405L6.44887 11.9132C6.29841 11.9809 6.17804 12.1038 6.12036 12.2593C6.06269 12.4147 6.0677 12.5853 6.13541 12.7357L8.36477 17.716L10.4537 16.7807C10.5289 16.7481 10.5816 16.6779 10.5891 16.5951C10.5966 16.5123 10.559 16.4321 10.4913 16.387C10.223 16.1989 10.0374 15.9958 9.98225 15.8302C9.84181 15.414 10.065 14.9601 10.4838 14.8196C10.9001 14.6792 11.354 14.9024 11.4944 15.3212C11.5621 15.5193 11.5471 15.7375 11.4543 15.9255C11.4142 16.0058 11.4292 16.1011 11.4919 16.1638C11.5521 16.229 11.6474 16.249 11.7276 16.2114L13.463 15.434C13.5457 15.3989 13.6159 15.3387 13.6661 15.2635L13.9294 15.1557C13.9595 15.4039 14.0523 15.6397 14.2002 15.8428C14.1726 15.8578 14.1501 15.8779 14.1275 15.9005C14.0723 15.9531 14.0422 16.0258 14.0422 16.1011L14.0548 16.9261H13.8843C13.8441 16.9261 13.8065 16.9437 13.7789 16.9713C13.7488 16.9988 13.7338 17.039 13.7363 17.0791L13.7639 18.9724H14.0648L14.0372 17.2296L18.0571 17.197L18.0847 18.9749H18.3856L18.358 17.0465C18.3555 16.9637 18.2903 16.8985 18.2076 16.896H18.032C18.032 16.891 18.0345 16.8835 18.0345 16.8785L18.022 16.071C18.022 15.9807 17.9768 15.8954 17.9016 15.8453C17.9593 15.7525 18.0044 15.6823 18.012 15.6672C18.0546 15.602 18.0872 15.5293 18.1072 15.4516L18.1123 15.434H18.1148L18.5536 13.794L18.3931 13.2874L18.5386 13.2272C18.8545 13.0968 19.005 12.7382 18.8746 12.4223C18.8746 12.4198 18.8721 12.4172 18.8721 12.4147ZM8.36728 11.0556L8.3422 11.0982C8.17168 11.3991 7.86323 11.532 7.86072 11.532L7.75038 11.5772C7.75038 11.5772 7.92341 12.6229 7.97106 12.9263C7.99864 13.1069 7.96604 13.2924 7.87577 13.4504C7.81056 13.5432 7.70524 13.5984 7.59239 13.5984C7.51465 13.5959 7.48205 13.5557 7.46952 13.5332L6.98051 12.006L6.88772 11.7176L6.80999 11.4769L7.23379 9.8995C7.24633 9.85436 7.26639 9.81173 7.29147 9.7716C7.29147 9.7716 7.36921 9.64622 7.45698 9.5108L10.5064 9.48573C10.6368 9.62365 10.7321 9.79167 10.7847 9.97473L8.36728 11.0556ZM10.6493 9.18731H10.6443V9.18229L7.39178 9.20737C7.36921 9.20988 7.34914 9.20235 7.33159 9.18981V9.15972L7.32156 8.40239C7.33911 8.39236 7.35918 8.38484 7.37924 8.38484L10.6368 8.35976C10.6593 8.35725 10.6794 8.36478 10.6969 8.37731L10.7095 9.16975C10.6919 9.17978 10.6694 9.18731 10.6493 9.18731ZM13.3401 15.1582L11.8028 15.8478C11.9508 15.2585 11.5947 14.6617 11.0054 14.5137C10.4161 14.3657 9.81924 14.7218 9.67129 15.3111C9.61863 15.5143 9.62866 15.7299 9.69386 15.928C9.77912 16.1763 10.0073 16.397 10.2155 16.5575L8.51272 17.3198L6.40624 12.6128C6.37114 12.5351 6.36863 12.4473 6.40123 12.3671C6.43132 12.2868 6.49151 12.2242 6.56925 12.189L6.70215 12.1289L7.19367 13.6611C7.2689 13.804 7.41435 13.8968 7.57735 13.8993C7.57735 13.8993 7.96855 13.9068 8.12904 13.6084V13.6034C8.25443 13.3827 8.30208 13.1269 8.26195 12.8762C8.22434 12.6354 8.12152 12.006 8.07889 11.7527C8.27951 11.6424 8.45003 11.4819 8.57542 11.2913L11.1207 10.1503C11.1207 10.1503 11.191 10.1101 11.2461 10.1227C11.2787 10.1352 11.3088 10.1728 11.3239 10.2054L12.1113 12.006C12.1439 12.0887 12.2267 12.1389 12.3144 12.1339C12.4022 12.1289 12.4774 12.0687 12.505 11.9859C12.5727 11.7577 12.7382 11.5747 12.9589 11.4844C13.3501 11.3088 13.8115 11.4819 13.9871 11.8731C14.1501 12.2342 14.0172 12.658 13.6761 12.8611C13.4579 12.984 13.0768 12.9539 12.9238 12.9363C12.8436 12.9263 12.7633 12.9614 12.7131 13.0266C12.7131 13.0291 12.6404 13.1119 12.6881 13.2548L13.4329 14.9149C13.4604 14.9776 13.4504 15.0529 13.4078 15.1055C13.3927 15.1281 13.3677 15.1481 13.3401 15.1582ZM17.7211 16.1136L17.7336 16.8709C17.716 16.8835 17.696 16.891 17.6734 16.8885L14.4159 16.9136C14.3933 16.9161 14.3733 16.9086 14.3557 16.896L14.3432 16.1161L17.7211 16.1136ZM17.8164 15.3738C17.8038 15.419 17.7838 15.4616 17.7587 15.5017V15.5068C17.7587 15.5068 17.6834 15.6296 17.5957 15.765L17.5656 15.8127H14.5689L14.5438 15.7876C14.3507 15.582 14.2353 15.3137 14.2203 15.0303L16.392 14.125C16.3443 14.2103 16.2992 14.3005 16.2566 14.3908L16.5299 14.5187C16.5851 14.4008 16.6452 14.2855 16.7079 14.1752C16.7706 14.0648 16.8559 13.9695 16.9537 13.8893C17.0264 13.8291 17.1042 13.7814 17.1894 13.7413L17.2998 13.6962L17.2822 13.5783C17.2797 13.5758 17.2722 13.5206 17.2571 13.4379C17.212 13.1671 17.1167 12.5802 17.0791 12.3495C17.0515 12.169 17.0841 11.9834 17.1744 11.8254C17.2396 11.7326 17.3449 11.675 17.4577 11.675C17.5355 11.6775 17.5681 11.7176 17.5806 11.7427L18.022 13.1169L18.1148 13.4053L18.2402 13.799L17.8164 15.3738ZM18.5963 12.7758C18.5637 12.8536 18.501 12.9163 18.4232 12.9489L18.3003 13.0015L17.854 11.6123C17.7787 11.4693 17.6333 11.3791 17.4728 11.374C17.0866 11.3841 16.9186 11.6674 16.9186 11.6674C16.7932 11.8881 16.7456 12.1439 16.7857 12.3947C16.8233 12.6379 16.9261 13.2649 16.9687 13.5181C16.9111 13.5507 16.8559 13.5883 16.8032 13.6285L13.7438 14.9074C13.7363 14.8673 13.0392 13.2975 13.0392 13.2975C13.2874 13.315 13.5733 13.3025 13.7865 13.1896L13.8817 13.1319C13.9971 13.0542 14.0974 12.9564 14.1751 12.841L14.2077 12.7909C14.2654 12.6956 14.3081 12.5928 14.3356 12.485C14.3382 12.4799 14.3381 12.4749 14.3381 12.4699H14.3407C14.3682 12.3721 14.3808 12.2718 14.3808 12.169C14.3808 12.0586 14.3632 11.9458 14.3306 11.8405C14.1501 11.2612 13.5332 10.9402 12.9539 11.1208C12.6755 11.2085 12.4423 11.4041 12.3069 11.6649L12.1289 11.2662C12.0712 11.1233 11.6875 10.2807 11.6022 10.0851C11.5822 10.0475 11.5596 10.0098 11.532 9.97724L13.5156 9.15972C13.5984 9.12461 13.6485 9.04186 13.6435 8.95409C13.641 8.86632 13.5808 8.79109 13.4981 8.76601C13.0768 8.63812 12.8385 8.19425 12.9664 7.77045C12.979 7.73032 12.994 7.69271 13.0116 7.65509C13.1094 7.44946 13.2899 7.29398 13.5106 7.2338C13.8717 7.13098 14.2554 7.29147 14.4334 7.62249C14.5513 7.84317 14.5112 8.22184 14.4886 8.37481C14.4786 8.45756 14.5112 8.53781 14.5764 8.58796C14.6416 8.63812 14.7268 8.65066 14.8021 8.61806L16.6377 7.85069L18.5937 12.5301C18.6289 12.6078 18.6289 12.6981 18.5963 12.7758Z" fill="white"/>
<path d="M9.44758 17.7839L9.18018 17.9219L9.52749 18.5948L9.79489 18.4568L9.44758 17.7839Z" fill="white"/>
<path d="M7.35708 17.7958L7.00977 18.4688L7.27717 18.6068L7.62448 17.9338L7.35708 17.7958Z" fill="white"/>
<path d="M8.25532 18.2273L8.23682 18.9844L8.53765 18.9917L8.55616 18.2346L8.25532 18.2273Z" fill="white"/>
<path d="M15.8099 6.4245L15.5425 6.5625L15.8898 7.23546L16.1572 7.09746L15.8099 6.4245Z" fill="white"/>
<path d="M18.0612 6.43446L17.7139 7.10742L17.9813 7.24543L18.3286 6.57246L18.0612 6.43446Z" fill="white"/>
<path d="M16.7832 6.03294L16.7646 6.79004L17.0655 6.79739L17.084 6.04029L16.7832 6.03294Z" fill="white"/>
</g>
<defs>
<clipPath id="clip0_1101_3271">
<rect width="13" height="13" fill="white" transform="translate(6 6)"/>
</clipPath>
</defs>
</svg>
