<svg width="25" height="25" viewBox="0 0 25 25" fill="none" xmlns="http://www.w3.org/2000/svg">
<circle cx="12.5" cy="12.5" r="12.5" fill="#D9045D"/>
<path d="M12.5 10.293C11.73 10.293 11.1035 10.9195 11.1035 11.6895C11.1035 12.3275 11.5337 12.8666 12.1192 13.0328V17.3772C12.1192 17.5875 12.2897 17.7581 12.5 17.7581C12.7104 17.7581 12.8809 17.5875 12.8809 17.3772V13.0328C13.4664 12.8666 13.8966 12.3275 13.8966 11.6895C13.8966 10.9195 13.2701 10.293 12.5 10.293ZM12.5 12.3243C12.15 12.3243 11.8653 12.0395 11.8653 11.6895C11.8653 11.3395 12.15 11.0547 12.5 11.0547C12.8501 11.0547 13.1348 11.3395 13.1348 11.6895C13.1348 12.0395 12.8501 12.3243 12.5 12.3243Z" fill="white"/>
<path d="M10.7378 9.65257C10.5891 9.50383 10.3479 9.50383 10.1992 9.65257C9.01834 10.8334 9.01816 12.7448 10.1992 13.9257C10.3479 14.0745 10.5891 14.0745 10.7378 13.9257C10.8865 13.777 10.8865 13.5359 10.7378 13.3871C9.85468 12.504 9.85453 11.0744 10.7378 10.1912C10.8865 10.0425 10.8865 9.80129 10.7378 9.65257Z" fill="white"/>
<path d="M14.8006 9.65255C14.6519 9.50384 14.4107 9.50384 14.2619 9.65255C14.1132 9.80127 14.1132 10.0424 14.2619 10.1912C15.1431 11.0723 15.1431 12.506 14.2619 13.3871C14.1132 13.5358 14.1132 13.777 14.2619 13.9257C14.4107 14.0745 14.6518 14.0745 14.8006 13.9257C15.9787 12.7476 15.9787 10.8306 14.8006 9.65255Z" fill="white"/>
<path d="M9.58884 9.04275C9.73758 8.89403 9.73758 8.65286 9.58884 8.50412C9.44012 8.3554 9.19895 8.3554 9.05021 8.50412C7.23847 10.3159 7.23847 13.2637 9.05021 15.0755C9.1989 15.2242 9.44007 15.2243 9.58884 15.0755C9.73758 14.9267 9.73758 14.6856 9.58884 14.5368C8.07413 13.0221 8.07413 10.5575 9.58884 9.04275Z" fill="white"/>
<path d="M15.9495 8.50412C15.8008 8.3554 15.5596 8.3554 15.4109 8.50412C15.2621 8.65283 15.2621 8.894 15.4109 9.04275C16.9256 10.5575 16.9256 13.0221 15.4109 14.5368C15.2621 14.6856 15.2621 14.9267 15.4109 15.0755C15.5596 15.2242 15.8008 15.2242 15.9495 15.0755C17.7612 13.2637 17.7612 10.3159 15.9495 8.50412Z" fill="white"/>
<path d="M8.43981 7.89333C8.58855 7.74461 8.58855 7.50345 8.43981 7.3547C8.29109 7.20598 8.04992 7.20598 7.90117 7.3547C5.36352 9.89233 5.36903 13.6921 7.90117 16.2242C8.04987 16.373 8.29104 16.373 8.43981 16.2242C8.58855 16.0755 8.58855 15.8344 8.43981 15.6856C6.21868 13.4644 6.21868 10.1145 8.43981 7.89333Z" fill="white"/>
<path d="M17.0989 7.3547C16.9502 7.20598 16.709 7.20598 16.5603 7.3547C16.4115 7.50342 16.4115 7.74459 16.5603 7.89333C18.7815 10.1145 18.7815 13.4644 16.5603 15.6856C16.4115 15.8343 16.4115 16.0755 16.5603 16.2242C16.7091 16.373 16.9502 16.373 17.0989 16.2242C19.6365 13.6866 19.6311 9.88685 17.0989 7.3547Z" fill="white"/>
</svg>
