<svg width="25" height="25" viewBox="0 0 25 25" fill="none" xmlns="http://www.w3.org/2000/svg">
<circle cx="12.5" cy="12.5" r="12.5" fill="#FFCD3C"/>
<path d="M8.05811 17.5052C8.08825 17.5067 8.11836 17.5018 8.14646 17.4908C8.17455 17.4798 8.19997 17.4629 8.22105 17.4413L9.45388 16.2083C9.49234 16.1685 9.51448 16.1158 9.51592 16.0605C9.51737 16.0052 9.49801 15.9514 9.46168 15.9097C8.90384 15.1881 8.60075 14.302 8.59978 13.3899C8.60018 12.4306 8.95577 11.5055 9.59796 10.7929L8.06266 9.25781C7.0148 10.3785 6.43225 11.8556 6.43311 13.3899C6.43099 14.8683 6.95197 16.2999 7.90385 17.4311C7.92298 17.4535 7.94659 17.4717 7.97316 17.4845C7.99972 17.4972 8.02866 17.5043 8.05811 17.5052Z" fill="white"/>
<path d="M15.8801 9.84774L13.1436 11.5276C13.4257 11.6269 13.6814 11.7896 13.8909 12.0031C14.1004 12.2167 14.2581 12.4755 14.3519 12.7595L16.04 10.01C16.0544 9.98768 16.0608 9.96106 16.0581 9.93459C16.0553 9.90812 16.0436 9.88338 16.0248 9.8645C16.0061 9.84561 15.9814 9.83372 15.955 9.83079C15.9285 9.82786 15.9018 9.83407 15.8794 9.84839L15.8801 9.84774Z" fill="white"/>
<path d="M15.7715 11.2754C16.1819 11.9042 16.4003 12.639 16.3998 13.3899C16.3987 14.3021 16.0954 15.1883 15.5373 15.9099C15.5011 15.9516 15.4819 16.0054 15.4835 16.0606C15.4851 16.1158 15.5073 16.1684 15.5457 16.208L16.7784 17.4413C16.7993 17.4631 16.8247 17.4801 16.8528 17.4911C16.881 17.5021 16.9111 17.5068 16.9413 17.505C16.9708 17.5041 16.9998 17.4971 17.0264 17.4844C17.0531 17.4716 17.0767 17.4535 17.096 17.4311C18.0477 16.2998 18.5686 14.8683 18.5665 13.3899C18.5674 11.8556 17.9848 10.3785 16.937 9.25781L16.4523 9.7425C16.4851 9.82246 16.4982 9.9091 16.4907 9.99519C16.4831 10.0813 16.4551 10.1643 16.4089 10.2374L15.7715 11.2754Z" fill="white"/>
<path d="M12.5001 14.8829C12.8 14.8829 13.0933 14.794 13.3427 14.6273C13.5921 14.4607 13.7865 14.2238 13.9013 13.9467C14.0161 13.6695 14.0461 13.3646 13.9876 13.0704C13.9291 12.7762 13.7846 12.5059 13.5725 12.2938C13.3604 12.0817 13.0902 11.9373 12.796 11.8788C12.5017 11.8202 12.1968 11.8503 11.9197 11.9651C11.6425 12.0799 11.4057 12.2742 11.239 12.5237C11.0723 12.7731 10.9834 13.0663 10.9834 13.3663C10.9839 13.7684 11.1439 14.1538 11.4282 14.4382C11.7125 14.7225 12.098 14.8824 12.5001 14.8829ZM12.2834 12.4996C12.2834 12.4421 12.3062 12.387 12.3469 12.3464C12.3875 12.3058 12.4426 12.2829 12.5001 12.2829C12.5575 12.2829 12.6126 12.3058 12.6533 12.3464C12.6939 12.387 12.7167 12.4421 12.7167 12.4996V13.3663C12.7167 13.4237 12.6939 13.4789 12.6533 13.5195C12.6126 13.5601 12.5575 13.5829 12.5001 13.5829C12.4426 13.5829 12.3875 13.5601 12.3469 13.5195C12.3062 13.4789 12.2834 13.4237 12.2834 13.3663V12.4996ZM12.5001 14.0111C12.5282 14.0105 12.5563 14.0155 12.5825 14.0258C12.6087 14.0362 12.6326 14.0517 12.6528 14.0713C12.6729 14.091 12.689 14.1145 12.7 14.1405C12.711 14.1665 12.7167 14.1944 12.7167 14.2225V14.2329C12.7167 14.2904 12.6939 14.3455 12.6533 14.3862C12.6126 14.4268 12.5575 14.4496 12.5001 14.4496C12.4426 14.4496 12.3875 14.4268 12.3469 14.3862C12.3062 14.3455 12.2834 14.2904 12.2834 14.2329C12.2832 14.1749 12.3057 14.1191 12.3463 14.0776C12.3868 14.0361 12.4421 14.0122 12.5001 14.0111Z" fill="white"/>
<path d="M12.4999 9.48819C13.2504 9.48792 13.9846 9.70626 14.613 10.1165L15.6517 9.47887C15.7247 9.4328 15.8076 9.40483 15.8936 9.3973C15.9796 9.38976 16.0661 9.40287 16.146 9.43554L16.6306 8.95064C15.51 7.90366 14.0335 7.32129 12.4999 7.32129C10.9662 7.32129 9.48981 7.90366 8.36914 8.95064L9.90444 10.4859C10.6166 9.84409 11.5412 9.48866 12.4999 9.48819Z" fill="white"/>
</svg>
