<svg width="25" height="25" viewBox="0 0 25 25" fill="none" xmlns="http://www.w3.org/2000/svg">
<circle cx="12.5" cy="12.5" r="12.5" fill="#E88B00"/>
<path fill-rule="evenodd" clip-rule="evenodd" d="M12.5 7.625C12.7992 7.625 13.0417 7.86751 13.0417 8.16667V16.8333C13.0417 17.1325 12.7992 17.375 12.5 17.375C12.2008 17.375 11.9583 17.1325 11.9583 16.8333V8.16667C11.9583 7.86751 12.2008 7.625 12.5 7.625ZM10.3333 8.70833C10.6325 8.70833 10.875 8.95085 10.875 9.25V15.75C10.875 16.0492 10.6325 16.2917 10.3333 16.2917C10.0342 16.2917 9.79167 16.0492 9.79167 15.75V9.25C9.79167 8.95085 10.0342 8.70833 10.3333 8.70833ZM8.16667 10.875C8.46582 10.875 8.70833 11.1175 8.70833 11.4167V13.5833C8.70833 13.8825 8.46582 14.125 8.16667 14.125C7.86751 14.125 7.625 13.8825 7.625 13.5833V11.4167C7.625 11.1175 7.86751 10.875 8.16667 10.875ZM15.2083 9.25C15.2083 8.95085 14.9658 8.70833 14.6667 8.70833C14.3675 8.70833 14.125 8.95085 14.125 9.25V15.75C14.125 16.0492 14.3675 16.2917 14.6667 16.2917C14.9658 16.2917 15.2083 16.0492 15.2083 15.75V9.25ZM17.375 11.4167C17.375 11.1175 17.1325 10.875 16.8333 10.875C16.5342 10.875 16.2917 11.1175 16.2917 11.4167V13.5833C16.2917 13.8825 16.5342 14.125 16.8333 14.125C17.1325 14.125 17.375 13.8825 17.375 13.5833V11.4167Z" fill="white"/>
</svg>
