<svg id="Layer_1" data-name="Layer 1" xmlns="http://www.w3.org/2000/svg" viewBox="0 0 546.52 216"><defs><style>.cls-1{fill:#143156;}.cls-2{fill:none;stroke:#b2a167;stroke-miterlimit:10;stroke-width:1.09px;}.cls-3{fill:#b2a167;}</style></defs><path class="cls-1" d="M246.83,90.62a.19.19,0,0,1,.09.18v1.56a.12.12,0,0,1-.13.13h-1.17a.12.12,0,0,1-.13-.13v-.77a.1.1,0,0,0-.05-.1,2.57,2.57,0,0,0-1.36-.35,1.69,1.69,0,0,0-1.84,1.18,6.36,6.36,0,0,0-.21,2,6.68,6.68,0,0,0,.17,2A1.65,1.65,0,0,0,244,97.51a2.68,2.68,0,0,0,1.44-.31c.11-.07.13-.11.13-.21V95.26c0-.05,0-.08-.07-.08H244.1a.12.12,0,0,1-.13-.13V94a.12.12,0,0,1,.13-.13h2.84a.13.13,0,0,1,.13.13v3.73a.32.32,0,0,1-.17.32,5,5,0,0,1-2.92.83c-1.78,0-2.83-.67-3.28-2.07a7.23,7.23,0,0,1-.23-2.47,7.12,7.12,0,0,1,.25-2.44,3.18,3.18,0,0,1,3.39-2.15A4.43,4.43,0,0,1,246.83,90.62Z"/><path class="cls-1" d="M253.93,94.06a5.77,5.77,0,0,1,.21,1.89c0,.08,0,.13-.15.13h-3.86s-.07,0-.07.08a1.21,1.21,0,0,0,.09.48,1.36,1.36,0,0,0,1.4,1A1.88,1.88,0,0,0,253,97a.13.13,0,0,1,.19,0l.77.68a.11.11,0,0,1,0,.18,3.27,3.27,0,0,1-2.57,1.07,2.53,2.53,0,0,1-2.61-1.74,4.94,4.94,0,0,1-.22-1.54,5.07,5.07,0,0,1,.2-1.55,2.78,2.78,0,0,1,5.14,0Zm-3.8.32a1.62,1.62,0,0,0-.07.53s0,.08.07.08h2.46a.07.07,0,0,0,.08-.08,1.6,1.6,0,0,0-.08-.53,1.34,1.34,0,0,0-2.46,0Z"/><path class="cls-1" d="M260.78,94.06a5.83,5.83,0,0,1,0,3.1,2.79,2.79,0,0,1-5.16,0,5.83,5.83,0,0,1,0-3.1,2.79,2.79,0,0,1,5.16,0Zm-3.76.39a3.74,3.74,0,0,0-.13,1.16,3.7,3.7,0,0,0,.13,1.16,1.19,1.19,0,0,0,1.19.82,1.17,1.17,0,0,0,1.17-.82,3.7,3.7,0,0,0,.13-1.16,3.74,3.74,0,0,0-.13-1.16,1.14,1.14,0,0,0-1.17-.81A1.16,1.16,0,0,0,257,94.45Z"/><path class="cls-1" d="M266.57,92.45c.07,0,.13,0,.13.13v1.13c0,.09-.06.16-.16.13a4.36,4.36,0,0,0-.77-.1c-.92,0-1.4.49-1.4,1.61v2s0,.08.08.08h.61a.12.12,0,0,1,.13.13v1a.12.12,0,0,1-.13.13h-2.78a.12.12,0,0,1-.13-.13v-1a.12.12,0,0,1,.13-.13h.55c.06,0,.08,0,.08-.08V93.83s0-.08-.08-.08h-.55a.12.12,0,0,1-.13-.13v-1a.12.12,0,0,1,.13-.13h2a.12.12,0,0,1,.13.13v.65h0a1.79,1.79,0,0,1,1.57-.87A3.54,3.54,0,0,1,266.57,92.45Z"/><path class="cls-1" d="M271.62,93.08h0v-.47a.12.12,0,0,1,.13-.13h2a.12.12,0,0,1,.13.13v1a.12.12,0,0,1-.13.13h-.56a.07.07,0,0,0-.08.08v4.53a2.62,2.62,0,0,1-2.92,2.87,3.12,3.12,0,0,1-2.28-.94.12.12,0,0,1,0-.18l.77-.77a.13.13,0,0,1,.2,0,1.9,1.9,0,0,0,1.36.59c1,0,1.41-.52,1.41-1.5v-.58h0a1.8,1.8,0,0,1-1.62.73,2.09,2.09,0,0,1-2.13-1.53,6.12,6.12,0,0,1,0-3.18A2.08,2.08,0,0,1,270,92.34,1.77,1.77,0,0,1,271.62,93.08Zm-2.35,1.35a3.13,3.13,0,0,0-.14,1,3,3,0,0,0,.14,1,1.17,1.17,0,0,0,2.22,0,2.75,2.75,0,0,0,.15-1,2.87,2.87,0,0,0-.15-1,1.17,1.17,0,0,0-2.22,0Z"/><path class="cls-1" d="M277,92.48a.12.12,0,0,1,.13.13v4.78a.07.07,0,0,0,.08.08h.56a.12.12,0,0,1,.13.13v1a.12.12,0,0,1-.13.13H275a.12.12,0,0,1-.13-.13v-1a.12.12,0,0,1,.13-.13h.56a.07.07,0,0,0,.08-.08V93.83a.07.07,0,0,0-.08-.08H275a.12.12,0,0,1-.13-.13v-1a.12.12,0,0,1,.13-.13Zm0-2.58a.13.13,0,0,1,.13.13v1.14a.13.13,0,0,1-.13.13H275.8a.13.13,0,0,1-.13-.13V90a.13.13,0,0,1,.13-.13Z"/><path class="cls-1" d="M284.14,94.52v2.87a.07.07,0,0,0,.08.08h.56a.12.12,0,0,1,.13.13v1a.12.12,0,0,1-.13.13h-1.86a.12.12,0,0,1-.13-.13v-.45h0a2,2,0,0,1-1.75.73A1.88,1.88,0,0,1,278.94,97c0-1.36,1-2,2.5-2h1.25c.05,0,.07,0,.07-.08v-.24c0-.72-.27-1.1-1.28-1.1a3.34,3.34,0,0,0-.68.08c-.05,0-.07,0-.07.09v.56a.12.12,0,0,1-.13.13h-1.13a.13.13,0,0,1-.13-.13V93a.17.17,0,0,1,.11-.17,4.94,4.94,0,0,1,2.09-.44C283.45,92.34,284.14,93,284.14,94.52Zm-2.47,1.53c-.92,0-1.34.28-1.34.86s.38.79,1.07.79c.88,0,1.36-.35,1.36-1.06v-.51s0-.08-.07-.08Z"/><path class="cls-1" d="M295.79,89.9a.13.13,0,0,1,.13.13v2.08a.12.12,0,0,1-.13.13h-1.12a.12.12,0,0,1-.13-.13v-.78s0-.07-.08-.07h-1.32c-.06,0-.08,0-.08.07v6.06s0,.08.08.08h.67a.12.12,0,0,1,.13.13v1a.12.12,0,0,1-.13.13h-3a.12.12,0,0,1-.13-.13v-1a.12.12,0,0,1,.13-.13h.68c.05,0,.07,0,.07-.08V91.33s0-.07-.07-.07h-1.33c-.05,0-.08,0-.08.07v.78a.12.12,0,0,1-.13.13h-1.12a.12.12,0,0,1-.12-.13V90a.12.12,0,0,1,.12-.13Z"/><path class="cls-1" d="M301,94.06a5.77,5.77,0,0,1,.21,1.89.12.12,0,0,1-.14.13h-3.87s-.07,0-.07.08a1.41,1.41,0,0,0,.09.48,1.37,1.37,0,0,0,1.4,1A1.88,1.88,0,0,0,300,97c.07-.07.13-.08.2,0l.76.68a.11.11,0,0,1,0,.18,3.3,3.3,0,0,1-2.58,1.07,2.54,2.54,0,0,1-2.61-1.74,4.94,4.94,0,0,1-.22-1.54,5,5,0,0,1,.21-1.55,2.77,2.77,0,0,1,5.13,0Zm-3.8.32a1.62,1.62,0,0,0-.07.53s0,.08.07.08h2.46a.07.07,0,0,0,.08-.08,1.6,1.6,0,0,0-.08-.53,1.34,1.34,0,0,0-2.46,0Z"/><path class="cls-1" d="M307.45,92.83a.16.16,0,0,1,.1.17v1.43a.12.12,0,0,1-.13.13h-1.1a.12.12,0,0,1-.13-.13v-.57c0-.06,0-.07-.07-.09a2.06,2.06,0,0,0-.79-.13,1.22,1.22,0,0,0-1.29.81,5.29,5.29,0,0,0,0,2.33,1.22,1.22,0,0,0,1.29.81,1.88,1.88,0,0,0,.79-.12c.06,0,.07,0,.07-.09v-.59a.13.13,0,0,1,.13-.13h1.1a.13.13,0,0,1,.13.13v1.45a.16.16,0,0,1-.1.17,4.63,4.63,0,0,1-2.16.48,2.51,2.51,0,0,1-2.66-1.69,5.18,5.18,0,0,1-.2-1.59,4.94,4.94,0,0,1,.2-1.55,2.57,2.57,0,0,1,2.66-1.72A4.48,4.48,0,0,1,307.45,92.83Z"/><path class="cls-1" d="M310.91,89.9A.13.13,0,0,1,311,90v3h0a1.9,1.9,0,0,1,1.63-.72,2.13,2.13,0,0,1,2.15,2.32v2.73a.07.07,0,0,0,.08.08h.54a.13.13,0,0,1,.13.13v1a.13.13,0,0,1-.13.13h-2.71a.12.12,0,0,1-.13-.13v-1a.12.12,0,0,1,.13-.13h.56a.07.07,0,0,0,.08-.08V95c0-.81-.39-1.36-1.17-1.36S311,94.19,311,95v2.39s0,.08.08.08h.56a.13.13,0,0,1,.13.13v1a.13.13,0,0,1-.13.13H309a.12.12,0,0,1-.13-.13v-1a.12.12,0,0,1,.13-.13h.55c.06,0,.08,0,.08-.08V91.26c0-.06,0-.08-.08-.08H309a.12.12,0,0,1-.13-.13V90a.13.13,0,0,1,.13-.13Z"/><path class="cls-1" d="M251.36,113.62c-.47-2.19-1.64-3.17-3.62-3.17-2.39,0-3.69,1.56-3.69,5.43v2.29c0,3.82,1.3,5.43,3.69,5.43,2.06,0,3.15-1,3.62-3.17h2.88c-.6,4-2.94,5.8-6.5,5.8-4,0-6.71-2.42-6.71-8.06v-2.29c0-5.64,2.71-8.06,6.71-8.06,3.56,0,5.93,1.9,6.53,5.8Z"/><path class="cls-1" d="M267.5,120.3c0,3.46-1.69,5.93-5.51,5.93-3.64,0-5.54-2.34-5.54-5.93v-1.64c0-3.82,2-5.9,5.54-5.9s5.51,2.08,5.51,5.9Zm-2.75-.08v-1.51c0-2.26-.91-3.53-2.76-3.53s-2.78,1.3-2.78,3.53v1.51c0,2,.67,3.62,2.78,3.62S264.75,122.25,264.75,120.22Z"/><path class="cls-1" d="M270.39,108.05h2.78v13.21c0,1.41.26,2.29,2,2.29V126c-3.38,0-4.76-1.09-4.76-4.08Z"/><path class="cls-1" d="M278.19,108.05H281v13.21c0,1.41.26,2.29,2,2.29V126c-3.38,0-4.76-1.09-4.76-4.08Z"/><path class="cls-1" d="M295.79,124c-.91,1.59-2.37,2.21-4.65,2.21-3.72,0-5.7-2.42-5.7-5.88v-1.77c0-3.82,1.87-5.82,5.28-5.82s5.25,2.13,5.25,6v1.43H288.2v0c0,2,.78,3.62,2.83,3.62a2.69,2.69,0,0,0,2.68-1.28Zm-7.57-6h5c-.1-1.9-.88-2.86-2.47-2.86S288.35,116.27,288.22,118Z"/><path class="cls-1" d="M306.87,113h2.75v12.74c0,4-2.29,5.36-5.67,5.36-2.34,0-3.79-.6-4.83-2.26l1.95-1.41a3,3,0,0,0,2.81,1.31c2.08,0,3-.89,3-3v-.59a4.2,4.2,0,0,1-3.12,1.09c-3.46,0-5.18-2.47-5.18-5.88v-1.77c0-3.74,2-5.82,5.18-5.82a4.17,4.17,0,0,1,3.12,1.14Zm0,7.23v-1.51c0-2.23-.91-3.53-2.76-3.53s-2.78,1.27-2.78,3.53v1.51c0,2,.78,3.62,2.78,3.62S306.87,122.25,306.87,120.22Z"/><path class="cls-1" d="M322.88,124c-.91,1.59-2.36,2.21-4.65,2.21-3.72,0-5.7-2.42-5.7-5.88v-1.77c0-3.82,1.88-5.82,5.28-5.82,3.56,0,5.25,2.13,5.25,6v1.43h-7.77v0c0,2,.78,3.62,2.83,3.62a2.69,2.69,0,0,0,2.68-1.28Zm-7.56-6h5c-.1-1.9-.88-2.86-2.47-2.86S315.45,116.27,315.32,118Z"/><path class="cls-1" d="M343.68,120.3c0,3.46-1.69,5.93-5.51,5.93-3.64,0-5.54-2.34-5.54-5.93v-1.64c0-3.82,2-5.9,5.54-5.9s5.51,2.08,5.51,5.9Zm-2.75-.08v-1.51c0-2.26-.91-3.53-2.76-3.53s-2.78,1.3-2.78,3.53v1.51c0,2,.67,3.62,2.78,3.62S340.93,122.25,340.93,120.22Z"/><path class="cls-1" d="M347.19,113v-.8c0-3.07,1.12-4.14,4.24-4.14h.81v2.5h-.6c-1.46,0-1.69.65-1.69,2.16V113h2.29v2.4H350V126h-2.76v-10.6h-1.66V113Z"/><path class="cls-1" d="M371.74,113.62c-.47-2.19-1.64-3.17-3.62-3.17-2.39,0-3.69,1.56-3.69,5.43v2.29c0,3.82,1.3,5.43,3.69,5.43,2.06,0,3.15-1,3.62-3.17h2.88c-.6,4-2.94,5.8-6.5,5.8-4,0-6.71-2.42-6.71-8.06v-2.29c0-5.64,2.71-8.06,6.71-8.06,3.56,0,5.93,1.9,6.53,5.8Z"/><path class="cls-1" d="M387.88,120.3c0,3.46-1.69,5.93-5.51,5.93-3.64,0-5.54-2.34-5.54-5.93v-1.64c0-3.82,2-5.9,5.54-5.9s5.51,2.08,5.51,5.9Zm-2.76-.08v-1.51c0-2.26-.91-3.53-2.75-3.53s-2.78,1.3-2.78,3.53v1.51c0,2,.67,3.62,2.78,3.62S385.12,122.25,385.12,120.22Z"/><path class="cls-1" d="M390.77,113h2.73v1.17a3.45,3.45,0,0,1,3-1.4,4.19,4.19,0,0,1,3.72,1.87,4.57,4.57,0,0,1,3.79-1.87c2.81,0,4.5,1.72,4.5,5.1V126h-2.78v-7.82c0-2.13-.89-2.94-2.31-2.94s-2.37,1-2.42,2.78v8h-2.76v-7.82c0-2.21-1-2.94-2.29-2.94s-2.44,1.09-2.44,2.91V126h-2.78Z"/><path class="cls-1" d="M423,120.35c0,3.38-1.66,5.88-5.12,5.88a4,4,0,0,1-3.15-1.07v5.78H412V113h2.78v1a3.88,3.88,0,0,1,3.18-1.27c3.12,0,5.09,2.11,5.09,5.82Zm-2.75-.13v-1.51c0-2.26-.91-3.53-2.76-3.53s-2.73,1.25-2.76,3.38v1.66c0,2,.65,3.62,2.76,3.62S420.28,122.25,420.28,120.22Z"/><path class="cls-1" d="M436.63,126H433.9v-1.17c-.6.94-1.38,1.41-3.2,1.41-2.68,0-4.76-1.38-4.76-5.12V113h2.79v7.83c0,2.31,1,3,2.49,3,1.72,0,2.66-1.14,2.66-2.93V113h2.75Z"/><path class="cls-1" d="M439.05,113h1.66v-2.86h2.76V113h2.75v2.4h-2.75v6c0,1.51.23,2.16,1.69,2.16h1.06V126H445c-3.12,0-4.24-1.06-4.24-4.13v-6.47h-1.66Z"/><path class="cls-1" d="M449.24,108.05h3v2.84h-3Zm.13,4.94h2.78v13h-2.78Z"/><path class="cls-1" d="M456,113h2.73v1.17a3.68,3.68,0,0,1,3.23-1.4c2.68,0,4.73,1.35,4.73,5.1V126H463.9v-7.82c0-2.29-1-2.94-2.47-2.94a2.59,2.59,0,0,0-2.67,2.91V126H456Z"/><path class="cls-1" d="M477.87,113h2.75v12.74c0,4-2.29,5.36-5.67,5.36-2.34,0-3.79-.6-4.83-2.26l1.95-1.41a3,3,0,0,0,2.81,1.31c2.08,0,3-.89,3-3v-.59a4.2,4.2,0,0,1-3.12,1.09c-3.46,0-5.18-2.47-5.18-5.88v-1.77c0-3.74,2-5.82,5.18-5.82a4.17,4.17,0,0,1,3.12,1.14Zm0,7.23v-1.51c0-2.23-.91-3.53-2.76-3.53s-2.78,1.27-2.78,3.53v1.51c0,2,.78,3.62,2.78,3.62S477.87,122.25,477.87,120.22Z"/><line class="cls-2" x1="222.63" y1="66.8" x2="222.75" y2="149.02"/><path class="cls-3" d="M188.55,144.29h0a2.38,2.38,0,0,0,0,4.75,2.38,2.38,0,0,0,0-4.75Zm0,4.38a2,2,0,0,1,0-4h0a2,2,0,0,1,0,4Z"/><path class="cls-3" d="M189,146.74v0a.65.65,0,0,0,.51-.64.64.64,0,0,0-.24-.55,1.43,1.43,0,0,0-.82-.2,3.82,3.82,0,0,0-.75.07V148h.42V146.9h.3a.49.49,0,0,1,.56.47,2.22,2.22,0,0,0,.18.67h.45a1.79,1.79,0,0,1-.17-.65C189.36,147,189.21,146.79,189,146.74Zm-.57-.16h-.31v-.9l.31,0c.47,0,.64.23.64.46S188.75,146.58,188.41,146.58Z"/><path class="cls-3" d="M113.58,67h0Z"/><path class="cls-3" d="M124.53,92.91v20.68h11.08l1.17-6.21h5c-1.82,9.46-11.23,16-23.16,16-.81,0-1.64,0-2.46-.09a32.75,32.75,0,0,1-17.1-6c-4.88-3.7-7.44-8.64-7.42-14.3a21.09,21.09,0,0,1,7.28-15.85,27,27,0,0,1,16.78-6.57l1.2,0a34.74,34.74,0,0,1,21.4,7.83,4,4,0,0,0,.45.35l.42.35.17.14h12.74V67H139.16v6.38a49.18,49.18,0,0,0-25.58-7h-.18A44.7,44.7,0,0,0,81.87,79.62c-6.72,6.83-10.36,15.18-10.25,23.52.11,9,4.43,17.32,12.16,23.52A44.6,44.6,0,0,0,111.27,136c1.25,0,2.51-.05,3.75-.15,10-.81,18.83-3.09,25.08-6.44l0,2.76h13.71V107.4h4.73v28.72h-7.14V149h31.88V136.12h-7.15V107.38h16.15l1.12,6.21h11.15V92.91ZM113.58,67h0Z"/></svg>