<?xml version="1.0" encoding="UTF-8" standalone="no"?>
<svg
   width="663.37714"
   height="215.33377"
   viewBox="0 0 663.37714 215.33377"
   fill="none"
   version="1.1"
   id="svg82"
   sodipodi:docname="ioda-logo-new.svg"
   xmlns:inkscape="http://www.inkscape.org/namespaces/inkscape"
   xmlns:sodipodi="http://sodipodi.sourceforge.net/DTD/sodipodi-0.dtd"
   xmlns="http://www.w3.org/2000/svg"
   xmlns:svg="http://www.w3.org/2000/svg">
  <defs
     id="defs86" />
  <sodipodi:namedview
     id="namedview84"
     pagecolor="#ffffff"
     bordercolor="#000000"
     borderopacity="0.25"
     inkscape:showpageshadow="2"
     inkscape:pageopacity="0.0"
     inkscape:pagecheckerboard="0"
     inkscape:deskcolor="#d1d1d1"
     showgrid="false" />
  <path
     d="m 257.62613,175.26902 h 24.325 V 47.694315 h -24.325 z"
     fill="#ffffff"
     id="path2" />
  <path
     d="m 356.88513,177.01902 c 39.9,0 61.6,-23.975 61.6,-65.1 v -0.525 c 0,-42.524405 -23.975,-65.274405 -61.6,-65.274405 -37.625,0 -61.6,22.75 -61.6,65.274405 v 0.525 c 0,41.125 21.7,65.1 61.6,65.1 z m 0,-21.175 c -22.75,0 -36.05,-13.125 -36.05,-34.65 v -19.25 c 0,-20.299405 11.9,-34.649405 36.05,-34.649405 24.15,0 36.05,14.35 36.05,34.649405 v 19.25 c 0,21.525 -13.3,34.65 -36.05,34.65 z"
     fill="#ffffff"
     id="path4" />
  <path
     d="m 431.96313,175.26902 h 50.75 c 36.575,0 61.075,-19.775 61.075,-63.175 v -1.225 c 0,-40.424505 -21.35,-63.349505 -61.075,-63.349505 h -50.75 z m 24.325,-20.825 V 68.344615 h 26.425 c 23.975,0 35.35,13.4749 35.35,33.599405 v 18.9 c 0,21.35 -12.6,33.6 -35.35,33.6 z"
     fill="#ffffff"
     id="path6" />
  <path
     d="m 541.57713,175.26902 h 23.45 l 9.625,-27.825 h 54.95 l 9.625,27.825 h 24.15 l -44.1,-127.574705 h -33.775 z m 38.85,-46.375 21.175,-62.124605 h 1.05 l 7.525,21.8749 13.65,40.249705 z"
     fill="#ffffff"
     id="path8" />
  <path
     d="m 56.962829,71.990315 39.6432,-22.888 50.719101,29.2825 v 45.776205 l 45.831,26.461 c 0.037,-0.555 0.056,-1.114 0.056,-1.675 V 66.387915 c 0,-8.9704 -4.785,-17.2594 -12.554,-21.7445 l -71.498,-41.2795296 c -7.769,-4.48518 -17.339701,-4.485181 -25.108301,0 l -71.4982,41.2795296 c -0.4861,0.2806 -0.9605,0.5762 -1.4228,0.8858 z"
     fill="#f59e0b"
     id="path78" />
  <path
     d="M 45.887729,91.172015 0.05584303,64.710915 C 0.01876203,65.266515 2.545929e-8,65.825515 2.545929e-8,66.387115 v 82.558905 c 0,8.97 4.785628974540711,17.259 12.554128974540709,21.745 l 71.4982,41.279 c 7.7686,4.485 17.339801,4.485 25.107801,0 l 71.499,-41.279 c 0.486,-0.281 0.961,-0.577 1.423,-0.887 l -45.832,-26.461 -39.643601,22.889 -50.7188,-29.283 z"
     fill="#d97706"
     id="path80" />
</svg>
